<svg id="visual" viewBox="0 0 4096 2160" width="4096" height="2160" xmlns="http://www.w3.org/2000/svg" xmlns:xlink="http://www.w3.org/1999/xlink" version="1.1"><rect x="0" y="0" width="4096" height="2160" fill="#101010"></rect><defs><linearGradient id="grad1_0" x1="47.3%" y1="0%" x2="100%" y2="100%"><stop offset="12.074074074074073%" stop-color="#6600ff" stop-opacity="1"></stop><stop offset="87.92592592592592%" stop-color="#6600ff" stop-opacity="1"></stop></linearGradient></defs><defs><linearGradient id="grad1_1" x1="47.3%" y1="0%" x2="100%" y2="100%"><stop offset="12.074074074074073%" stop-color="#6600ff" stop-opacity="1"></stop><stop offset="87.92592592592592%" stop-color="#5814c9" stop-opacity="1"></stop></linearGradient></defs><defs><linearGradient id="grad1_2" x1="47.3%" y1="0%" x2="100%" y2="100%"><stop offset="12.074074074074073%" stop-color="#481996" stop-opacity="1"></stop><stop offset="87.92592592592592%" stop-color="#5814c9" stop-opacity="1"></stop></linearGradient></defs><defs><linearGradient id="grad1_3" x1="47.3%" y1="0%" x2="100%" y2="100%"><stop offset="12.074074074074073%" stop-color="#481996" stop-opacity="1"></stop><stop offset="87.92592592592592%" stop-color="#381a66" stop-opacity="1"></stop></linearGradient></defs><defs><linearGradient id="grad1_4" x1="47.3%" y1="0%" x2="100%" y2="100%"><stop offset="12.074074074074073%" stop-color="#261739" stop-opacity="1"></stop><stop offset="87.92592592592592%" stop-color="#381a66" stop-opacity="1"></stop></linearGradient></defs><defs><linearGradient id="grad1_5" x1="47.3%" y1="0%" x2="100%" y2="100%"><stop offset="12.074074074074073%" stop-color="#261739" stop-opacity="1"></stop><stop offset="87.92592592592592%" stop-color="#101010" stop-opacity="1"></stop></linearGradient></defs><defs><linearGradient id="grad2_0" x1="0%" y1="0%" x2="52.7%" y2="100%"><stop offset="12.074074074074073%" stop-color="#6600ff" stop-opacity="1"></stop><stop offset="87.92592592592592%" stop-color="#6600ff" stop-opacity="1"></stop></linearGradient></defs><defs><linearGradient id="grad2_1" x1="0%" y1="0%" x2="52.7%" y2="100%"><stop offset="12.074074074074073%" stop-color="#5814c9" stop-opacity="1"></stop><stop offset="87.92592592592592%" stop-color="#6600ff" stop-opacity="1"></stop></linearGradient></defs><defs><linearGradient id="grad2_2" x1="0%" y1="0%" x2="52.7%" y2="100%"><stop offset="12.074074074074073%" stop-color="#5814c9" stop-opacity="1"></stop><stop offset="87.92592592592592%" stop-color="#481996" stop-opacity="1"></stop></linearGradient></defs><defs><linearGradient id="grad2_3" x1="0%" y1="0%" x2="52.7%" y2="100%"><stop offset="12.074074074074073%" stop-color="#381a66" stop-opacity="1"></stop><stop offset="87.92592592592592%" stop-color="#481996" stop-opacity="1"></stop></linearGradient></defs><defs><linearGradient id="grad2_4" x1="0%" y1="0%" x2="52.7%" y2="100%"><stop offset="12.074074074074073%" stop-color="#381a66" stop-opacity="1"></stop><stop offset="87.92592592592592%" stop-color="#261739" stop-opacity="1"></stop></linearGradient></defs><defs><linearGradient id="grad2_5" x1="0%" y1="0%" x2="52.7%" y2="100%"><stop offset="12.074074074074073%" stop-color="#101010" stop-opacity="1"></stop><stop offset="87.92592592592592%" stop-color="#261739" stop-opacity="1"></stop></linearGradient></defs><g transform="translate(4096, 0)"><path d="M0 1836C-141.5 1835.1 -283 1834.1 -408.5 1790C-534.1 1745.8 -643.7 1658.4 -770.1 1599.2C-896.6 1540.1 -1040.1 1509.2 -1136 1424.5C-1231.9 1339.8 -1280.4 1201.3 -1369.8 1092.4C-1459.1 983.4 -1589.4 903.9 -1634.4 787.1C-1679.3 670.2 -1639 515.9 -1658.4 378.5C-1677.7 241.1 -1756.9 120.5 -1836 0L0 0Z" fill="#1c1425"></path><path d="M0 1530C-117.9 1529.2 -235.8 1528.5 -340.5 1491.6C-445.1 1454.8 -536.4 1382 -641.8 1332.7C-747.2 1283.4 -866.7 1257.7 -946.7 1187.1C-1026.6 1116.5 -1067 1001.1 -1141.5 910.3C-1215.9 819.5 -1324.5 753.3 -1362 655.9C-1399.4 558.5 -1365.8 429.9 -1382 315.4C-1398.1 200.9 -1464.1 100.5 -1530 0L0 0Z" fill="#2f194f"></path><path d="M0 1224C-94.3 1223.4 -188.7 1222.8 -272.4 1193.3C-356.1 1163.9 -429.1 1105.6 -513.4 1066.1C-597.8 1026.7 -693.4 1006.1 -757.3 949.7C-821.3 893.2 -853.6 800.9 -913.2 728.2C-972.8 655.6 -1059.6 602.6 -1089.6 524.7C-1119.5 446.8 -1092.6 343.9 -1105.6 252.3C-1118.5 160.7 -1171.2 80.4 -1224 0L0 0Z" fill="#401a7e"></path><path d="M0 918C-70.8 917.5 -141.5 917.1 -204.3 895C-267 872.9 -321.8 829.2 -385.1 799.6C-448.3 770 -520 754.6 -568 712.2C-616 669.9 -640.2 600.7 -684.9 546.2C-729.6 491.7 -794.7 452 -817.2 393.5C-839.7 335.1 -819.5 258 -829.2 189.3C-838.9 120.5 -878.4 60.3 -918 0L0 0Z" fill="#5017af"></path><path d="M0 612C-47.2 611.7 -94.3 611.4 -136.2 596.7C-178 581.9 -214.6 552.8 -256.7 533.1C-298.9 513.4 -346.7 503.1 -378.7 474.8C-410.6 446.6 -426.8 400.4 -456.6 364.1C-486.4 327.8 -529.8 301.3 -544.8 262.4C-559.8 223.4 -546.3 172 -552.8 126.2C-559.2 80.4 -585.6 40.2 -612 0L0 0Z" fill="#5f0de4"></path><path d="M0 306C-23.6 305.8 -47.2 305.7 -68.1 298.3C-89 291 -107.3 276.4 -128.4 266.5C-149.4 256.7 -173.3 251.5 -189.3 237.4C-205.3 223.3 -213.4 200.2 -228.3 182.1C-243.2 163.9 -264.9 150.7 -272.4 131.2C-279.9 111.7 -273.2 86 -276.4 63.1C-279.6 40.2 -292.8 20.1 -306 0L0 0Z" fill="#6600ff"></path></g><g transform="translate(0, 2160)"><path d="M0 -1836C134.6 -1810.4 269.2 -1784.8 401.2 -1757.8C533.2 -1730.8 662.8 -1702.4 796.6 -1654.2C930.5 -1606 1068.7 -1538 1121.7 -1406.5C1174.6 -1275 1142.4 -1080.1 1220.4 -973.3C1298.5 -866.4 1486.8 -847.7 1586.6 -764.1C1686.4 -680.4 1697.8 -531.8 1724.6 -393.6C1751.5 -255.5 1793.7 -127.7 1836 0L0 0Z" fill="#1c1425"></path><path d="M0 -1530C112.2 -1508.7 224.3 -1487.3 334.3 -1464.8C444.4 -1442.3 552.3 -1418.7 663.8 -1378.5C775.4 -1338.3 890.6 -1281.7 934.7 -1172.1C978.9 -1062.5 952 -900.1 1017 -811.1C1082.1 -722 1239 -706.4 1322.2 -636.7C1405.4 -567 1414.9 -443.2 1437.2 -328C1459.6 -212.9 1494.8 -106.4 1530 0L0 0Z" fill="#2f194f"></path><path d="M0 -1224C89.7 -1206.9 179.4 -1189.9 267.5 -1171.9C355.5 -1153.9 441.8 -1134.9 531.1 -1102.8C620.3 -1070.7 712.4 -1025.3 747.8 -937.7C783.1 -850 761.6 -720.1 813.6 -648.8C865.6 -577.6 991.2 -565.2 1057.7 -509.4C1124.3 -453.6 1131.9 -354.5 1149.8 -262.4C1167.6 -170.3 1195.8 -85.2 1224 0L0 0Z" fill="#401a7e"></path><path d="M0 -918C67.3 -905.2 134.6 -892.4 200.6 -878.9C266.6 -865.4 331.4 -851.2 398.3 -827.1C465.2 -803 534.3 -769 560.8 -703.3C587.3 -637.5 571.2 -540 610.2 -486.6C649.2 -433.2 743.4 -423.9 793.3 -382C843.2 -340.2 848.9 -265.9 862.3 -196.8C875.7 -127.7 896.9 -63.9 918 0L0 0Z" fill="#5017af"></path><path d="M0 -612C44.9 -603.5 89.7 -594.9 133.7 -585.9C177.7 -576.9 220.9 -567.5 265.5 -551.4C310.2 -535.3 356.2 -512.7 373.9 -468.8C391.5 -425 380.8 -360 406.8 -324.4C432.8 -288.8 495.6 -282.6 528.9 -254.7C562.1 -226.8 565.9 -177.3 574.9 -131.2C583.8 -85.2 597.9 -42.6 612 0L0 0Z" fill="#5f0de4"></path><path d="M0 -306C22.4 -301.7 44.9 -297.5 66.9 -293C88.9 -288.5 110.5 -283.7 132.8 -275.7C155.1 -267.7 178.1 -256.3 186.9 -234.4C195.8 -212.5 190.4 -180 203.4 -162.2C216.4 -144.4 247.8 -141.3 264.4 -127.3C281.1 -113.4 283 -88.6 287.4 -65.6C291.9 -42.6 299 -21.3 306 0L0 0Z" fill="#6600ff"></path></g></svg>